<svg width="275.7" height="73.401" viewBox="0 0 275.7 73.401" xmlns="http://www.w3.org/2000/svg"><g id="svgGroup" stroke-linecap="round" fill-rule="evenodd" font-size="9pt" stroke="#000" stroke-width="0.25mm" fill="#000" style="stroke:#000;stroke-width:0.25mm;fill:#000"><path d="M 21.3 72.4 L 0 72.4 L 0 70.4 L 4.3 70.4 A 16.61 16.61 0 0 0 5.601 70.353 Q 6.848 70.255 7.652 69.952 A 3.692 3.692 0 0 0 8 69.8 A 2.465 2.465 0 0 0 9.029 68.806 Q 9.257 68.417 9.407 67.908 A 6.007 6.007 0 0 0 9.55 67.3 A 15.702 15.702 0 0 0 9.719 66.081 Q 9.9 64.332 9.9 61.6 L 9.9 11.8 Q 9.9 7.9 9.55 6.05 A 5.234 5.234 0 0 0 9.286 5.109 Q 9.081 4.587 8.773 4.217 A 2.386 2.386 0 0 0 8 3.6 Q 6.949 3.075 4.901 3.01 A 18.882 18.882 0 0 0 4.3 3 L 0 3 L 0 1 L 13.4 1 L 40.3 69.3 L 67.1 1 L 80.8 1 L 80.8 3 L 76.7 3 A 16.61 16.61 0 0 0 75.399 3.048 Q 74.152 3.146 73.348 3.449 A 3.692 3.692 0 0 0 73 3.6 A 2.504 2.504 0 0 0 71.942 4.63 Q 71.714 5.028 71.568 5.545 A 5.878 5.878 0 0 0 71.45 6.05 Q 71.183 7.461 71.12 10.065 A 71.583 71.583 0 0 0 71.1 11.8 L 71.1 61.6 Q 71.1 64.704 71.334 66.541 A 13.871 13.871 0 0 0 71.45 67.3 A 5.454 5.454 0 0 0 71.714 68.266 Q 72.137 69.369 73 69.8 Q 74.051 70.326 76.099 70.391 A 18.882 18.882 0 0 0 76.7 70.4 L 80.8 70.4 L 80.8 72.4 L 57.2 72.4 L 57.2 70.4 L 62.7 70.4 A 16.61 16.61 0 0 0 64.001 70.353 Q 65.248 70.255 66.052 69.952 A 3.692 3.692 0 0 0 66.4 69.8 A 2.465 2.465 0 0 0 67.429 68.806 Q 67.657 68.417 67.807 67.908 A 6.007 6.007 0 0 0 67.95 67.3 A 15.702 15.702 0 0 0 68.119 66.081 Q 68.3 64.332 68.3 61.6 L 68.3 5.5 L 42.1 72.4 L 38.5 72.4 L 12.4 6.1 L 12.4 61.6 Q 12.4 64.704 12.634 66.541 A 13.871 13.871 0 0 0 12.75 67.3 A 5.454 5.454 0 0 0 13.014 68.266 Q 13.437 69.369 14.3 69.8 Q 15.351 70.326 17.399 70.391 A 18.882 18.882 0 0 0 18 70.4 L 21.3 70.4 L 21.3 72.4 Z M 232.4 72.4 L 209.6 72.4 L 209.6 70.4 L 213.9 70.4 A 16.61 16.61 0 0 0 215.201 70.353 Q 216.448 70.255 217.252 69.952 A 3.692 3.692 0 0 0 217.6 69.8 A 2.465 2.465 0 0 0 218.629 68.806 Q 218.857 68.417 219.007 67.908 A 6.007 6.007 0 0 0 219.15 67.3 A 15.702 15.702 0 0 0 219.319 66.081 Q 219.5 64.332 219.5 61.6 L 219.5 11.8 Q 219.5 7.9 219.15 6.05 A 5.234 5.234 0 0 0 218.886 5.109 Q 218.681 4.587 218.373 4.217 A 2.386 2.386 0 0 0 217.6 3.6 Q 216.549 3.075 214.501 3.01 A 18.882 18.882 0 0 0 213.9 3 L 209.6 3 L 209.6 1 L 232.4 1 L 232.4 3 L 227.9 3 A 16.61 16.61 0 0 0 226.599 3.048 Q 225.352 3.146 224.548 3.449 A 3.692 3.692 0 0 0 224.2 3.6 A 2.504 2.504 0 0 0 223.142 4.63 Q 222.914 5.028 222.768 5.545 A 5.878 5.878 0 0 0 222.65 6.05 Q 222.383 7.461 222.32 10.065 A 71.583 71.583 0 0 0 222.3 11.8 L 222.3 33.8 L 263 33.8 L 263 11.8 Q 263 7.9 262.65 6.05 A 5.234 5.234 0 0 0 262.386 5.109 Q 262.181 4.587 261.873 4.217 A 2.386 2.386 0 0 0 261.1 3.6 Q 260.049 3.075 258.001 3.01 A 18.882 18.882 0 0 0 257.4 3 L 252.9 3 L 252.9 1 L 275.7 1 L 275.7 3 L 271.4 3 A 16.61 16.61 0 0 0 270.099 3.048 Q 268.852 3.146 268.048 3.449 A 3.692 3.692 0 0 0 267.7 3.6 A 2.504 2.504 0 0 0 266.642 4.63 Q 266.414 5.028 266.268 5.545 A 5.878 5.878 0 0 0 266.15 6.05 Q 265.883 7.461 265.82 10.065 A 71.583 71.583 0 0 0 265.8 11.8 L 265.8 61.6 Q 265.8 64.704 266.034 66.541 A 13.871 13.871 0 0 0 266.15 67.3 A 5.454 5.454 0 0 0 266.414 68.266 Q 266.837 69.369 267.7 69.8 Q 268.751 70.326 270.799 70.391 A 18.882 18.882 0 0 0 271.4 70.4 L 275.7 70.4 L 275.7 72.4 L 252.9 72.4 L 252.9 70.4 L 257.4 70.4 A 16.61 16.61 0 0 0 258.701 70.353 Q 259.948 70.255 260.752 69.952 A 3.692 3.692 0 0 0 261.1 69.8 A 2.465 2.465 0 0 0 262.129 68.806 Q 262.357 68.417 262.507 67.908 A 6.007 6.007 0 0 0 262.65 67.3 A 15.702 15.702 0 0 0 262.819 66.081 Q 263 64.332 263 61.6 L 263 36.3 L 222.3 36.3 L 222.3 61.6 Q 222.3 64.704 222.534 66.541 A 13.871 13.871 0 0 0 222.65 67.3 A 5.454 5.454 0 0 0 222.914 68.266 Q 223.337 69.369 224.2 69.8 Q 225.251 70.326 227.299 70.391 A 18.882 18.882 0 0 0 227.9 70.4 L 232.4 70.4 L 232.4 72.4 Z M 134.8 33.3 L 156.5 56.8 A 42.685 42.685 0 0 0 160.019 46.264 A 47.974 47.974 0 0 0 160.2 45.3 A 79.225 79.225 0 0 0 160.952 40.124 Q 161.235 37.55 161.288 35.248 A 45.521 45.521 0 0 0 161.3 34.2 L 161.3 30.9 L 174.5 30.9 L 174.5 32.9 L 171.4 32.9 Q 168.813 32.9 167.305 33.096 A 10.759 10.759 0 0 0 166.65 33.2 A 3.516 3.516 0 0 0 165.74 33.499 A 2.472 2.472 0 0 0 164.55 34.75 A 6.243 6.243 0 0 0 164.268 35.557 Q 164.014 36.453 163.83 37.807 A 34.227 34.227 0 0 0 163.7 38.9 Q 163.2 43.5 161.9 48.9 Q 160.6 54.3 158.3 58.6 L 166.9 67.9 Q 168.3 69.5 170.35 69.95 A 14.292 14.292 0 0 0 171.673 70.168 Q 172.985 70.328 174.822 70.378 A 65.6 65.6 0 0 0 176.6 70.4 L 178.1 70.4 L 178.1 72.4 L 167.2 72.4 L 156.8 61.2 Q 154.6 64.4 151.65 67.2 A 22.218 22.218 0 0 1 146.097 71.024 A 26.009 26.009 0 0 1 144.6 71.7 Q 140.976 73.203 136.025 73.377 A 37.606 37.606 0 0 1 134.7 73.4 A 24.791 24.791 0 0 1 129.156 72.807 A 19.255 19.255 0 0 1 123.75 70.7 Q 119.1 68 116.55 63.4 A 20.448 20.448 0 0 1 114.09 55.133 A 24.954 24.954 0 0 1 114 53 Q 114 47.694 115.722 43.783 A 16.946 16.946 0 0 1 115.85 43.5 Q 117.7 39.5 121.1 36.65 A 27.189 27.189 0 0 1 125.897 33.459 A 34.45 34.45 0 0 1 129.3 31.9 A 801.455 801.455 0 0 1 125.915 27.64 A 722.916 722.916 0 0 1 125.45 27.05 Q 123.6 24.7 122.45 21.65 A 16.894 16.894 0 0 1 121.606 18.426 Q 121.3 16.566 121.3 14.4 Q 121.3 10.9 122.9 7.6 A 11.728 11.728 0 0 1 126.068 3.646 A 15.775 15.775 0 0 1 128.25 2.15 A 14.573 14.573 0 0 1 131.85 0.719 Q 133.579 0.27 135.627 0.101 A 31.428 31.428 0 0 1 138.2 0 A 25.229 25.229 0 0 1 141.802 0.242 Q 143.753 0.524 145.368 1.134 A 12.665 12.665 0 0 1 147.3 2.05 A 14.412 14.412 0 0 1 150.398 4.449 A 11.972 11.972 0 0 1 152.45 7.3 Q 154.1 10.5 154.1 14.2 A 18.066 18.066 0 0 1 153.485 18.996 A 15.333 15.333 0 0 1 152.1 22.4 A 15.747 15.747 0 0 1 149.035 26.262 A 21.742 21.742 0 0 1 145.85 28.7 A 30.641 30.641 0 0 1 141.976 30.762 Q 138.838 32.172 134.8 33.3 Z M 155.2 59.4 L 131.5 33.8 A 29.692 29.692 0 0 0 126.825 35.785 A 35.343 35.343 0 0 0 124.7 37 A 17.07 17.07 0 0 0 119.482 42.079 A 20.051 20.051 0 0 0 119.05 42.75 A 13.944 13.944 0 0 0 117.444 46.63 Q 116.8 49.143 116.8 52.3 A 23.907 23.907 0 0 0 117.446 58.017 A 16.464 16.464 0 0 0 121.8 65.9 Q 126.8 70.9 134.7 70.9 A 27.744 27.744 0 0 0 140.28 70.368 Q 144.192 69.565 147.2 67.55 A 27.435 27.435 0 0 0 154.005 61.149 A 25.858 25.858 0 0 0 155.2 59.4 Z M 132.6 31.3 A 53.845 53.845 0 0 0 137.993 29.712 Q 143.398 27.784 146.451 25.066 A 15.014 15.014 0 0 0 146.9 24.65 A 13.815 13.815 0 0 0 151.296 14.68 A 16.678 16.678 0 0 0 151.3 14.3 Q 151.3 9.6 148.05 6.05 Q 144.8 2.5 138.4 2.5 Q 131.4 2.5 127.75 5.8 A 10.902 10.902 0 0 0 124.118 13.665 A 14.802 14.802 0 0 0 124.1 14.4 A 22.02 22.02 0 0 0 124.32 17.588 A 16.028 16.028 0 0 0 125.1 20.75 Q 126.1 23.5 128 25.95 A 64.976 64.976 0 0 0 129.957 28.346 Q 131.015 29.583 132.245 30.917 A 110.126 110.126 0 0 0 132.6 31.3 Z" vector-effect="non-scaling-stroke"/></g></svg>